<svg xmlns="http://www.w3.org/2000/svg" version="1.1" xmlns:xlink="http://www.w3.org/1999/xlink" xmlns:svgjs="http://svgjs.dev/svgjs" width="1500" height="200" viewBox="0 0 1500 200"><g transform="matrix(1,0,0,1,-0.9090909090909918,-0.525744787754789)"><svg viewBox="0 0 396 53" data-background-color="#2d1b81" preserveAspectRatio="xMidYMid meet" height="200" width="1500" xmlns="http://www.w3.org/2000/svg" xmlns:xlink="http://www.w3.org/1999/xlink"><g id="tight-bounds" transform="matrix(1,0,0,1,0.2400000000000091,0.13932236875501758)"><svg viewBox="0 0 395.52 52.72135526248997" height="52.72135526248997" width="395.52"><g><svg viewBox="0 0 480.167172333714 64.0045107149853" height="52.72135526248997" width="395.52"><g><rect width="5.743276446698938" height="64.0045107149853" x="63.86914079094456" y="0" fill="#ffabc7" opacity="1" stroke-width="0" stroke="transparent" fill-opacity="1" class="rect-qz-0" data-fill-palette-color="primary" rx="1%" id="qz-0" data-palette-color="#ffabc7"></rect></g><g transform="matrix(1,0,0,1,84.64717233371402,0.15921520078354234)"><svg viewBox="0 0 395.52 63.686080313418216" height="63.686080313418216" width="395.52"><g id="textblocktransform"><svg viewBox="0 0 395.52 63.686080313418216" height="63.686080313418216" width="395.52" id="textblock"><g><svg viewBox="0 0 395.52 63.686080313418216" height="63.686080313418216" width="395.52"><g transform="matrix(1,0,0,1,0,0)"><svg width="395.52" viewBox="1.2 -40.75 255.23000000000002 41.1" height="63.686080313418216" data-palette-color="#ffabc7"><path d="M1.2-14.05Q1.2-18.4 2.78-21.65 4.35-24.9 7.08-26.65 9.8-28.4 13.15-28.4L13.15-28.4Q16.05-28.4 18.15-27.25 20.25-26.1 21.4-24.15L21.4-24.15 21.4-28.05 31.2-28.05 31.2 0 21.4 0 21.4-3.9Q20.25-1.95 18.13-0.8 16 0.35 13.15 0.35L13.15 0.35Q9.8 0.35 7.08-1.4 4.35-3.15 2.78-6.43 1.2-9.7 1.2-14.05L1.2-14.05ZM21.4-14.05Q21.4-16.75 19.93-18.3 18.45-19.85 16.3-19.85L16.3-19.85Q14.1-19.85 12.65-18.32 11.2-16.8 11.2-14.05L11.2-14.05Q11.2-11.35 12.65-9.78 14.1-8.2 16.3-8.2L16.3-8.2Q18.45-8.2 19.93-9.75 21.4-11.3 21.4-14.05L21.4-14.05ZM41.75-30.65Q39.15-30.65 37.57-32.08 36-33.5 36-35.65L36-35.65Q36-37.85 37.57-39.3 39.15-40.75 41.75-40.75L41.75-40.75Q44.3-40.75 45.87-39.3 47.45-37.85 47.45-35.65L47.45-35.65Q47.45-33.5 45.87-32.08 44.3-30.65 41.75-30.65L41.75-30.65ZM36.8-28.05L46.6-28.05 46.6 0 36.8 0 36.8-28.05ZM67.34-28.05L67.34-19.9 62.95-19.9 62.95 0 53.1 0 53.1-19.9 50.05-19.9 50.05-28.05 53.1-28.05 53.1-28.3Q53.1-33.7 56.27-36.58 59.45-39.45 65.4-39.45L65.4-39.45Q66.59-39.45 67.25-39.4L67.25-39.4 67.25-31.05Q66.84-31.1 66.15-31.1L66.15-31.1Q64.55-31.1 63.8-30.38 63.05-29.65 62.95-28.05L62.95-28.05 67.34-28.05ZM83.89 0.35Q79.69 0.35 76.37-1.4 73.04-3.15 71.14-6.4 69.24-9.65 69.24-14.05L69.24-14.05Q69.24-18.4 71.17-21.65 73.09-24.9 76.42-26.65 79.74-28.4 83.94-28.4L83.94-28.4Q88.14-28.4 91.47-26.65 94.79-24.9 96.72-21.65 98.64-18.4 98.64-14.05L98.64-14.05Q98.64-9.7 96.72-6.43 94.79-3.15 91.44-1.4 88.09 0.35 83.89 0.35L83.89 0.35ZM83.89-8.15Q85.94-8.15 87.32-9.68 88.69-11.2 88.69-14.05L88.69-14.05Q88.69-16.9 87.32-18.4 85.94-19.9 83.94-19.9L83.94-19.9Q81.94-19.9 80.59-18.4 79.24-16.9 79.24-14.05L79.24-14.05Q79.24-11.15 80.54-9.65 81.84-8.15 83.89-8.15L83.89-8.15ZM112.44-23.1Q114.09-25.5 116.44-26.9 118.79-28.3 121.49-28.3L121.49-28.3 121.49-17.85 118.74-17.85Q115.54-17.85 113.99-16.6 112.44-15.35 112.44-12.25L112.44-12.25 112.44 0 102.64 0 102.64-28.05 112.44-28.05 112.44-23.1ZM161.64-28.3Q166.94-28.3 169.96-25.1 172.99-21.9 172.99-16.35L172.99-16.35 172.99 0 163.19 0 163.19-15.05Q163.19-17.3 161.94-18.55 160.69-19.8 158.54-19.8L158.54-19.8Q156.39-19.8 155.14-18.55 153.89-17.3 153.89-15.05L153.89-15.05 153.89 0 144.09 0 144.09-15.05Q144.09-17.3 142.86-18.55 141.64-19.8 139.49-19.8L139.49-19.8Q137.29-19.8 136.04-18.55 134.79-17.3 134.79-15.05L134.79-15.05 134.79 0 124.99 0 124.99-28.05 134.79-28.05 134.79-24.35Q136.09-26.15 138.16-27.23 140.24-28.3 142.94-28.3L142.94-28.3Q146.04-28.3 148.46-26.95 150.89-25.6 152.29-23.15L152.29-23.15Q153.79-25.45 156.24-26.88 158.69-28.3 161.64-28.3L161.64-28.3ZM197.19-28.05L207.03-28.05 207.03 0 197.19 0 197.19-4Q195.94-2.1 193.73-0.93 191.53 0.25 188.69 0.25L188.69 0.25Q183.78 0.25 180.96-2.98 178.13-6.2 178.13-11.75L178.13-11.75 178.13-28.05 187.88-28.05 187.88-13Q187.88-10.6 189.16-9.22 190.44-7.85 192.53-7.85L192.53-7.85Q194.69-7.85 195.94-9.22 197.19-10.6 197.19-13L197.19-13 197.19-28.05ZM212.63-37L222.43-37 222.43 0 212.63 0 212.63-37ZM226.43-14.05Q226.43-18.4 228.01-21.65 229.58-24.9 232.31-26.65 235.03-28.4 238.38-28.4L238.38-28.4Q241.28-28.4 243.38-27.25 245.48-26.1 246.63-24.15L246.63-24.15 246.63-28.05 256.43-28.05 256.43 0 246.63 0 246.63-3.9Q245.48-1.95 243.36-0.8 241.23 0.35 238.38 0.35L238.38 0.35Q235.03 0.35 232.31-1.4 229.58-3.15 228.01-6.43 226.43-9.7 226.43-14.05L226.43-14.05ZM246.63-14.05Q246.63-16.75 245.16-18.3 243.68-19.85 241.53-19.85L241.53-19.85Q239.33-19.85 237.88-18.32 236.43-16.8 236.43-14.05L236.43-14.05Q236.43-11.35 237.88-9.78 239.33-8.2 241.53-8.2L241.53-8.2Q243.68-8.2 245.16-9.75 246.63-11.3 246.63-14.05L246.63-14.05Z" opacity="1" transform="matrix(1,0,0,1,0,0)" fill="#ffabc7" class="wordmark-text-0" data-fill-palette-color="primary" id="text-0"></path></svg></g></svg></g></svg></g></svg></g><g transform="matrix(1,0,0,1,0,0.15921520078354234)"><svg viewBox="0 0 48.834385694874044 63.686080313418216" height="63.686080313418216" width="48.834385694874044"><g><svg xmlns="http://www.w3.org/2000/svg" xmlns:xlink="http://www.w3.org/1999/xlink" version="1.1" x="0" y="0" viewBox="20.900000000000002 12.1 58.2 75.9" style="enable-background:new 0 0 100 100;" xml:space="preserve" height="63.686080313418216" width="48.834385694874044" class="icon-icon-0" data-fill-palette-color="accent" id="icon-0"><path class="" d="M25.7 13.8h12.5v-0.9c0-0.4 0.4-0.8 0.8-0.8H61c0.4 0 0.8 0.4 0.8 0.8v0.9h12.5c1.3 0 2.5 0.5 3.4 1.4 0.9 0.9 1.4 2.1 1.4 3.4v64.6c0 1.3-0.5 2.5-1.4 3.4h0c-0.9 0.9-2.1 1.4-3.4 1.4H25.7c-1.3 0-2.5-0.5-3.4-1.4-0.9-0.9-1.4-2-1.4-3.4V18.6c0-1.3 0.5-2.5 1.4-3.4v0l0 0 0 0C23.3 14.3 24.4 13.8 25.7 13.8L25.7 13.8zM37.3 26.8c-0.4 0-0.8 0.4-0.8 0.8v4h-4c-0.4 0-0.8 0.4-0.8 0.8v5c0 0.4 0.4 0.8 0.8 0.8h4v4c0 0.4 0.4 0.8 0.8 0.8h5c0.4 0 0.8-0.4 0.8-0.8v-4h4c0.4 0 0.8-0.4 0.8-0.8v-5c0-0.4-0.4-0.8-0.8-0.8h-4v-4c0-0.4-0.4-0.8-0.8-0.8H37.3L37.3 26.8zM41.5 28.4h-3.4v4c0 0.4-0.4 0.8-0.8 0.8h-4v3.4h4c0.4 0 0.8 0.4 0.8 0.8v4h3.4v-4c0-0.4 0.4-0.8 0.8-0.8h4v-3.4h-4c-0.4 0-0.8-0.4-0.8-0.8V28.4L41.5 28.4zM66.1 34.2H50.9c-0.4 0-0.8 0.4-0.8 0.8 0 0.4 0.4 0.8 0.8 0.8h15.2c0.4 0 0.8-0.4 0.8-0.8C66.9 34.5 66.5 34.2 66.1 34.2L66.1 34.2zM66.1 44.7H33c-0.4 0-0.8 0.4-0.8 0.8 0 0.4 0.4 0.8 0.8 0.8h33.1c0.4 0 0.8-0.4 0.8-0.8C66.9 45.1 66.5 44.7 66.1 44.7L66.1 44.7zM66.1 66.4H33c-0.4 0-0.8 0.4-0.8 0.8S32.5 68 33 68h33.1c0.4 0 0.8-0.4 0.8-0.8S66.5 66.4 66.1 66.4L66.1 66.4zM66.1 55.2H33c-0.4 0-0.8 0.4-0.8 0.8 0 0.4 0.4 0.8 0.8 0.8h33.1c0.4 0 0.8-0.4 0.8-0.8C66.9 55.6 66.5 55.2 66.1 55.2L66.1 55.2zM39.8 14.6v5.3 2.7h20.3v-2.7-5.3-0.9H39.8V14.6L39.8 14.6zM27.7 19.1h10.6v-3.7H25.7c-0.9 0-1.7 0.4-2.2 0.9l0 0c-0.6 0.6-0.9 1.4-0.9 2.2v64.6c0 0.9 0.4 1.7 0.9 2.2 0.6 0.6 1.4 0.9 2.2 0.9h48.5c0.9 0 1.7-0.4 2.2-0.9l0 0c0.6-0.6 0.9-1.4 0.9-2.2V18.6c0-0.9-0.4-1.7-0.9-2.2-0.6-0.6-1.4-0.9-2.2-0.9H61.7v3.7h10.6c0.4 0 0.8 0.4 0.8 0.8v62c0 0.4-0.4 0.8-0.8 0.8H27.7c-0.4 0-0.8-0.4-0.8-0.8v-62C26.9 19.4 27.3 19.1 27.7 19.1L27.7 19.1zM38.2 20.7h-9.8v60.4h43V20.7h-9.8v2.7c0 0.4-0.4 0.8-0.8 0.8H39c-0.4 0-0.8-0.4-0.8-0.8V20.7z" fill-rule="evenodd" clip-rule="evenodd" fill="#ffabc7" data-fill-palette-color="accent"></path></svg></g></svg></g></svg></g><defs></defs></svg><rect width="395.52" height="52.72135526248997" fill="none" stroke="none" visibility="hidden"></rect></g></svg></g></svg>