<svg width="24" height="24" viewBox="0 0 24 24" fill="none" xmlns="http://www.w3.org/2000/svg">
<path fill-rule="evenodd" clip-rule="evenodd" d="M12 7.5C9.51471 7.5 7.49999 9.51472 7.49999 12C7.49999 14.4853 9.51471 16.5 12 16.5C14.4853 16.5 16.5 14.4853 16.5 12C16.5 9.51472 14.4853 7.5 12 7.5ZM8.99999 12C8.99999 10.3431 10.3431 9 12 9C13.6568 9 15 10.3431 15 12C15 13.6569 13.6568 15 12 15C10.3431 15 8.99999 13.6569 8.99999 12Z" fill="#222222"/>
<path fill-rule="evenodd" clip-rule="evenodd" d="M12 3.75C7.00177 3.75 2.6974 6.71633 0.739067 10.9835C0.442935 11.6288 0.442935 12.3712 0.739067 13.0165C2.6974 17.2837 7.00177 20.25 12 20.25C16.9982 20.25 21.3026 17.2837 23.2609 13.0165C23.5571 12.3712 23.5571 11.6288 23.2609 10.9835C21.3026 6.71633 16.9982 3.75 12 3.75ZM2.10236 11.6091C3.82588 7.85362 7.61096 5.25 12 5.25C16.389 5.25 20.1741 7.85362 21.8976 11.6091C22.0115 11.8572 22.0115 12.1428 21.8976 12.3909C20.1741 16.1464 16.389 18.75 12 18.75C7.61096 18.75 3.82588 16.1464 2.10236 12.3909C1.98851 12.1428 1.9885 11.8572 2.10236 11.6091Z" fill="#222222"/>
</svg>
